# xmcd
# Track frame offsets:
# 150
# 12350
# 25700
# 37925
# 53300
# 72300
# 92100
# 101800
# 116225
# 130575
#
# Disc length: 1910 seconds
# Revision: 0
# Processed by: cddbd v1.4PL0 Copyright (c) Steve Scherf et al.
# Submitted via: VisiTrax 2.9.5.180 - For more info visit www.synapsa.com
#
DISCID=7807740a
DTITLE=Laney Hicks - The last letter
DYEAR=1900
DGENRE=
TTITLE0=I'm little but I'm loud
TTITLE1=Invitation to the blues
TTITLE2=Heart over mind
TTITLE3=There goes my everything
TTITLE4=The last letter
TTITLE5=Faded love
TTITLE6=Just one time
TTITLE7=Take these chains
TTITLE8=Little girls need daddys
TTITLE9=The cowboy song
EXTD=
EXTT0=
EXTT1=
EXTT2=
EXTT3=
EXTT4=
EXTT5=
EXTT6=
EXTT7=
EXTT8=
EXTT9=
PLAYORDER=
